<?xml version="1.0" encoding="UTF-8"?>
<svg xmlns="http://www.w3.org/2000/svg" width="102" height="40" viewBox="0 0 102 40" fill="none">
  <path d="M20.335 10.645C18.4917 9.85167 16.485 9.455 14.315 9.455C12.1683 9.455 10.4183 10.1433 9.065 11.52C7.735 12.8967 7.07 14.6933 7.07 16.91H6.3C6.3 14.4833 7.04667 12.5117 8.54 10.995C10.0333 9.455 11.9467 8.685 14.28 8.685C16.1467 8.685 18.165 9.04667 20.335 9.77C22.8317 10.68 25.5383 11.135 28.455 11.135V11.87C26.705 11.87 25.305 11.7883 24.255 11.625C24.2317 11.7183 24.15 12.1033 24.01 12.78C23.1467 16.6067 22.4467 19.6517 21.91 21.915H31.29L34.86 6.725H35.595L30.695 27.76C30.485 28.6233 30.38 29.2067 30.38 29.51C30.38 30.49 30.835 30.98 31.745 30.98C32.3983 30.98 32.97 30.6417 33.46 29.965L33.95 30.385C33.7867 30.6883 33.495 30.9683 33.075 31.225C32.655 31.505 32.1417 31.645 31.535 31.645C30.9517 31.645 30.485 31.4467 30.135 31.05C29.8083 30.6533 29.645 30.175 29.645 29.615L30.065 27.305L31.15 22.545H21.735C21.4783 23.525 21.2217 24.5867 20.965 25.73C20.7083 26.8733 20.3933 27.9933 20.02 29.09C19.67 30.1867 19.18 31.3183 18.55 32.485C17.92 33.6517 17.2083 34.5967 16.415 35.32C15.645 36.0667 14.665 36.6733 13.475 37.14C12.3083 37.63 11.0367 37.875 9.66 37.875C8.30667 37.875 7.02333 37.6183 5.81 37.105C4.59667 36.5917 3.58167 35.88 2.765 34.97C1.365 33.36 0.665 31.4117 0.665 29.125C0.665 28.7517 0.676667 28.3783 0.7 28.005L1.47 28.11C1.44667 28.4367 1.435 28.7633 1.435 29.09C1.435 31.26 2.08833 33.0683 3.395 34.515C4.725 35.985 6.51 36.72 8.75 36.72C10.99 36.72 12.565 36.125 13.475 34.935C14.385 33.745 15.2483 31.4583 16.065 28.075C16.905 24.6917 18.3283 18.8817 20.335 10.645ZM48.8048 30.315C46.7514 30.315 45.6314 29.4167 45.4448 27.62C44.4181 29.4167 43.1231 30.315 41.5598 30.315C39.9964 30.315 38.7481 29.8483 37.8148 28.915C36.9048 27.9583 36.4498 26.6283 36.4498 24.925C36.4498 22.265 37.1031 20.1767 38.4098 18.66C39.7164 17.1433 41.4081 16.385 43.4848 16.385C45.1881 16.385 46.3198 17.19 46.8798 18.8C46.9964 18.1 47.1248 17.4 47.2648 16.7C48.9914 16.7 50.2748 16.63 51.1148 16.49L51.5698 16.385L49.1548 29.615C49.8548 29.545 50.4381 29.2183 50.9048 28.635L51.4298 29.055C50.7298 29.895 49.8548 30.315 48.8048 30.315ZM40.4048 26.71C40.4048 27.76 40.5331 28.495 40.7898 28.915C41.0698 29.3117 41.4898 29.51 42.0498 29.51C42.6098 29.51 43.1814 29.2067 43.7648 28.6C44.5348 27.8067 45.1531 26.8033 45.6198 25.59C45.6898 25.2867 45.8181 24.5633 46.0048 23.42C46.2148 22.2533 46.3898 21.2967 46.5298 20.55C46.4598 19.6633 46.2148 18.8933 45.7948 18.24C45.3748 17.5867 44.8498 17.26 44.2198 17.26C43.0764 17.26 42.1548 18.2867 41.4548 20.34C40.7548 22.37 40.4048 24.4933 40.4048 26.71ZM59.7729 30.315C58.3029 30.315 57.2296 29.825 56.5529 28.845L53.6129 30.945H52.9479L56.8679 8.02C56.1679 8.09 55.5846 8.41667 55.1179 9L54.5929 8.58C55.2929 7.74 56.1679 7.32 57.2179 7.32C58.2912 7.32 59.1196 7.58833 59.7029 8.125C60.2862 8.66167 60.5779 9.42 60.5779 10.4C60.5779 10.5867 60.5546 10.89 60.5079 11.31C60.1346 13.3867 59.6796 15.8833 59.1429 18.8C60.1229 17.2133 61.3946 16.42 62.9579 16.42C64.5212 16.42 65.7229 16.875 66.5629 17.785C67.4029 18.6717 67.8229 19.8967 67.8229 21.46C67.8229 24.2133 67.0762 26.3833 65.5829 27.97C64.0896 29.5333 62.1529 30.315 59.7729 30.315ZM59.5279 29.37C60.8112 29.37 61.8496 28.4833 62.6429 26.71C63.4596 24.9133 63.8679 22.685 63.8679 20.025C63.8679 18.9517 63.7512 18.2167 63.5179 17.82C63.3079 17.4233 62.9112 17.225 62.3279 17.225C61.7446 17.225 61.1379 17.575 60.5079 18.275C59.9012 18.975 59.4579 19.64 59.1779 20.27C58.8979 20.8767 58.7579 21.2267 58.7579 21.32H58.6879C58.1046 24.3767 57.6729 26.6867 57.3929 28.25C57.7896 28.9967 58.5012 29.37 59.5279 29.37ZM76.0107 29.055C75.3107 29.895 74.4357 30.315 73.3857 30.315C72.3357 30.315 71.5074 30.0467 70.9007 29.51C70.3174 28.9733 70.0257 28.2733 70.0257 27.41C70.0257 27.1067 70.2124 25.835 70.5857 23.595L71.7407 17.33H70.2707L70.3407 16.7H71.8457C73.5724 16.7 74.844 16.63 75.6607 16.49L76.1507 16.385L73.7357 29.615C74.4357 29.545 75.019 29.2183 75.4857 28.635L76.0107 29.055ZM72.9307 13.025C72.4407 12.535 72.1957 11.94 72.1957 11.24C72.1957 10.54 72.4407 9.945 72.9307 9.455C73.4207 8.94167 74.0157 8.685 74.7157 8.685C75.4157 8.685 76.0107 8.94167 76.5007 9.455C77.014 9.945 77.2707 10.54 77.2707 11.24C77.2707 11.94 77.014 12.535 76.5007 13.025C76.0107 13.515 75.4157 13.76 74.7157 13.76C74.0157 13.76 73.4207 13.515 72.9307 13.025ZM84.3823 30.315C82.9123 30.315 81.8389 29.825 81.1623 28.845L78.2223 30.945H77.5573L81.4773 8.02C80.7773 8.09 80.1939 8.41667 79.7273 9L79.2023 8.58C79.9023 7.74 80.7773 7.32 81.8273 7.32C82.9006 7.32 83.7289 7.58833 84.3123 8.125C84.8956 8.66167 85.1873 9.42 85.1873 10.4C85.1873 10.5867 85.1639 10.89 85.1173 11.31C84.7439 13.3867 84.2889 15.8833 83.7523 18.8C84.7323 17.2133 86.0039 16.42 87.5673 16.42C89.1306 16.42 90.3323 16.875 91.1723 17.785C92.0123 18.6717 92.4323 19.8967 92.4323 21.46C92.4323 24.2133 91.6856 26.3833 90.1923 27.97C88.6989 29.5333 86.7623 30.315 84.3823 30.315ZM84.1373 29.37C85.4206 29.37 86.4589 28.4833 87.2523 26.71C88.0689 24.9133 88.4773 22.685 88.4773 20.025C88.4773 18.9517 88.3606 18.2167 88.1273 17.82C87.9173 17.4233 87.5206 17.225 86.9373 17.225C86.3539 17.225 85.7473 17.575 85.1173 18.275C84.5106 18.975 84.0673 19.64 83.7873 20.27C83.5073 20.8767 83.3673 21.2267 83.3673 21.32H83.2973C82.7139 24.3767 82.2823 26.6867 82.0023 28.25C82.3989 28.9967 83.1106 29.37 84.1373 29.37ZM100.62 29.055C99.9201 29.895 99.0451 30.315 97.9951 30.315C96.9451 30.315 96.1167 30.0467 95.5101 29.51C94.9267 28.9733 94.6351 28.2733 94.6351 27.41C94.6351 27.1067 94.8217 25.835 95.1951 23.595L96.3501 17.33H94.8801L94.9501 16.7H96.4551C98.1817 16.7 99.4534 16.63 100.27 16.49L100.76 16.385L98.3451 29.615C99.0451 29.545 99.6284 29.2183 100.095 28.635L100.62 29.055ZM97.5401 13.025C97.0501 12.535 96.8051 11.94 96.8051 11.24C96.8051 10.54 97.0501 9.945 97.5401 9.455C98.0301 8.94167 98.6251 8.685 99.3251 8.685C100.025 8.685 100.62 8.94167 101.11 9.455C101.623 9.945 101.88 10.54 101.88 11.24C101.88 11.94 101.623 12.535 101.11 13.025C100.62 13.515 100.025 13.76 99.3251 13.76C98.6251 13.76 98.0301 13.515 97.5401 13.025Z" fill="#fff"></path>
</svg>
